<?xml version="1.0" ?><!DOCTYPE svg  PUBLIC '-//W3C//DTD SVG 1.1//EN'  'http://www.w3.org/Graphics/SVG/1.1/DTD/svg11.dtd'><svg height="100%" style="fill-rule:evenodd;clip-rule:evenodd;stroke-linejoin:round;stroke-miterlimit:2;" version="1.1" viewBox="0 0 64 64" width="100%" xml:space="preserve" xmlns="http://www.w3.org/2000/svg" xmlns:serif="http://www.serif.com/" xmlns:xlink="http://www.w3.org/1999/xlink"><g transform="matrix(1,0,0,1,-560,-160)"><g id="tripadvisor-apps-platform" transform="matrix(1,0,0,1,560,160)"><rect height="64" style="fill:none;" width="64" x="0" y="0"/><g transform="matrix(1,0,0,1,-400,-160)"><circle cx="432" cy="192" r="26" style="fill:rgb(149,214,164);"/></g><g transform="matrix(1,0,0,1,-400,-160)"><path d="M414.646,172.646C410.515,177.249 408,183.333 408,190C408,204.35 419.65,216 434,216C440.667,216 446.751,213.485 451.354,209.354C446.592,214.66 439.683,218 432,218C417.65,218 406,206.35 406,192C406,184.317 409.34,177.408 414.646,172.646Z" style="fill:rgb(120,194,164);"/></g><g transform="matrix(1.05263,0,0,1.05263,-591.158,-170.105)"><path d="M576.67,185C581.11,181.759 586.476,180 592,180C597.524,180 602.89,181.759 607.33,185L611,185L608.216,187.784C609.936,189.503 611,191.878 611,194.5C611,199.743 606.743,204 601.5,204C598.878,204 596.503,202.936 594.784,201.216L592,204L589.216,201.216C587.497,202.936 585.122,204 582.5,204C577.257,204 573,199.743 573,194.5C573,191.878 574.064,189.503 575.784,187.784L573,185L576.67,185ZM601.382,185.001C598.451,183.691 595.257,183 592,183C588.743,183 585.549,183.691 582.618,185.001C587.639,185.061 591.729,189.027 591.987,194L592.013,194C592.271,189.027 596.361,185.061 601.382,185.001Z" style="fill:rgb(115,139,149);"/></g><g transform="matrix(0.760234,0,0,0.760234,-420.456,-113.614)"><circle cx="582" cy="195" r="9" style="fill:rgb(149,214,164);"/></g><g transform="matrix(0.409357,0,0,0.409357,-216.246,-45.193)"><circle cx="582" cy="195" r="9" style="fill:rgb(115,139,149);"/></g><g transform="matrix(0.760234,0,0,0.760234,-400.456,-113.614)"><circle cx="582" cy="195" r="9" style="fill:rgb(149,214,164);"/></g><g transform="matrix(0.409357,0,0,0.409357,-196.246,-45.193)"><circle cx="582" cy="195" r="9" style="fill:rgb(115,139,149);"/></g></g></g></svg>